<svg xmlns="http://www.w3.org/2000/svg" viewBox="10 36 180 176" width="720" height="704"><path d="M70 118 C 68 156, 62 188, 60 206 L 140 206 C 138 188, 132 156, 130 118 Z" fill="#F6EBDD" stroke="#5E3240" stroke-width="5" stroke-linejoin="round"/>
<path d="M16 118 C 14 40, 186 40, 184 118 C 184 134, 16 134, 16 118 Z" fill="#C9787A" stroke="#5E3240" stroke-width="5" stroke-linejoin="round"/>
<circle cx="62" cy="76" r="11" fill="#F6EBDD"/><circle cx="114" cy="74" r="12" fill="#F6EBDD"/>
<circle cx="152" cy="92" r="10" fill="#F6EBDD"/><circle cx="40" cy="108" r="7" fill="#F6EBDD"/>
<circle cx="96" cy="100" r="8" fill="#F6EBDD"/>
<path d="M81 150 q7 7 14 0" stroke="#5E3240" stroke-width="4.5" stroke-linecap="round" fill="none"/>
<path d="M105 150 q7 7 14 0" stroke="#5E3240" stroke-width="4.5" stroke-linecap="round" fill="none"/>
<circle cx="78" cy="165" r="6.5" fill="#C9787A" opacity="0.6"/>
<circle cx="122" cy="165" r="6.5" fill="#C9787A" opacity="0.6"/>
<path d="M93.0 166 q7 6 14 0" stroke="#5E3240" stroke-width="4" stroke-linecap="round" fill="none"/></svg>